<?xml version="1.0" encoding="utf-8"?>
<!-- Generator: Adobe Illustrator 27.6.1, SVG Export Plug-In . SVG Version: 6.00 Build 0)  -->
<svg version="1.1" id="Layer_1" xmlns="http://www.w3.org/2000/svg" xmlns:xlink="http://www.w3.org/1999/xlink" x="0px" y="0px"
	 viewBox="0 0 720 720" style="enable-background:new 0 0 720 720;" xml:space="preserve">
<style type="text/css">
	.st0{fill:#FF2E36;}
</style>
<g>
	<g>
		<path class="st0" d="M445.85,161l22.29,22.29h66.21v66.2l22.29,22.29V161H445.85z M534.35,450.78v66.19h-66.2l-22.29,22.29h110.77
			V428.49L534.35,450.78z M200.66,516.97v-66.19l-22.29-22.29v110.77h110.77l-22.29-22.29H200.66z M178.38,161v110.77l22.29-22.29
			v-66.2h66.21L289.17,161H178.38z"/>
	</g>
	<path class="st0" d="M414.24,422.57c22.15,0,43.63,16.02,43.63,51.88c0,58.77-90.35,107.57-90.35,107.57s-90.35-48.8-90.35-107.57
		c0-35.87,21.47-51.89,43.63-51.88c20.45,0,41.48,13.65,46.73,37.94C372.75,436.22,393.78,422.57,414.24,422.57"/>
</g>
<g>
	<path d="M257.13,290.04h21.23l42.29,109.97H298.9l-8.6-22.65h-44.87l-8.95,22.65h-21.75L257.13,290.04z M267.88,319.2
		l-14.75,37.75h29.42L267.88,319.2z"/>
	<path d="M388.76,287.28c15.56,0,28.94,5.63,40.13,16.89c11.2,11.26,16.79,24.99,16.79,41.19c0,16.05-5.52,29.63-16.57,40.74
		c-11.05,11.11-24.45,16.67-40.21,16.67c-16.51,0-30.22-5.71-41.14-17.12c-10.92-11.41-16.38-24.97-16.38-40.67
		c0-10.51,2.54-20.18,7.63-29.01c5.09-8.82,12.08-15.81,20.98-20.97C368.9,289.86,378.48,287.28,388.76,287.28z M388.53,307.76
		c-10.18,0-18.74,3.54-25.67,10.62c-6.93,7.08-10.4,16.07-10.4,26.99c0,12.16,4.36,21.78,13.1,28.86c6.78,5.53,14.57,8.3,23.35,8.3
		c9.93,0,18.38-3.59,25.37-10.76c6.98-7.18,10.48-16.02,10.48-26.54c0-10.47-3.52-19.32-10.55-26.58
		C407.17,311.39,398.61,307.76,388.53,307.76z"/>
	<path d="M465.72,290.04h54.57v20.41H486.5v19.96h33.79v20.11H486.5v49.49h-20.78V290.04z"/>
</g>
<g>
	<path d="M307.91,186.2h15.23c6.13,0,10.84,0.73,14.13,2.18c3.29,1.45,5.89,3.69,7.8,6.7c1.91,3.01,2.86,6.36,2.86,10.03
		c0,3.43-0.84,6.56-2.51,9.38c-1.67,2.82-4.13,5.1-7.37,6.86c4.02,1.37,7.11,2.97,9.27,4.81c2.16,1.84,3.85,4.06,5.05,6.67
		c1.21,2.61,1.81,5.44,1.81,8.48c0,6.2-2.27,11.44-6.8,15.73c-4.54,4.29-10.62,6.44-18.26,6.44h-21.22V186.2z M315.47,193.76v24.74
		h4.42c5.37,0,9.32-0.5,11.85-1.5c2.53-1,4.53-2.57,6-4.73c1.47-2.15,2.21-4.54,2.21-7.17c0-3.54-1.24-6.31-3.71-8.33
		c-2.47-2.01-6.41-3.02-11.82-3.02H315.47z M315.47,226.28v29.63h9.58c5.65,0,9.79-0.55,12.42-1.65c2.63-1.1,4.74-2.83,6.34-5.17
		c1.6-2.35,2.39-4.89,2.39-7.62c0-3.43-1.12-6.43-3.37-8.98c-2.24-2.56-5.33-4.31-9.26-5.25c-2.63-0.63-7.21-0.95-13.74-0.95
		H315.47z"/>
	<path d="M370.82,182.78c1.67,0,3.1,0.6,4.29,1.79c1.19,1.19,1.78,2.63,1.78,4.31c0,1.65-0.59,3.06-1.78,4.26
		c-1.19,1.19-2.62,1.79-4.29,1.79c-1.64,0-3.05-0.6-4.24-1.79c-1.19-1.19-1.78-2.61-1.78-4.26c0-1.68,0.59-3.12,1.78-4.31
		C367.77,183.38,369.18,182.78,370.82,182.78z M367.17,206.32h7.36v57.16h-7.36V206.32z"/>
	<path d="M385.13,206.32h41.98l-32.36,50.64h31.31v6.51h-43.97l32.33-50.7h-29.29V206.32z"/>
</g>
</svg>
